<svg version="1.1" xmlns="http://www.w3.org/2000/svg" viewBox="0 0 459.8829412858579 356.2897628288685" width="459.8829412858579" height="356.2897628288685" filter="invert(93%) hue-rotate(180deg)" class="excalidraw-svg"><!-- svg-source:excalidraw --><metadata></metadata><defs><style class="style-fonts">
      </style></defs><rect x="0" y="0" width="459.8829412858579" height="356.2897628288685" fill="#ffffff"></rect><g stroke-linecap="round" transform="translate(10 10) rotate(0 200.1939784804254 168.14488141443425)"><path d="M0 0 C156.57 0, 313.13 0, 400.39 0 M0 0 C126.29 0, 252.57 0, 400.39 0 M400.39 0 C400.39 94.18, 400.39 188.36, 400.39 336.29 M400.39 0 C400.39 108.79, 400.39 217.58, 400.39 336.29 M400.39 336.29 C256.29 336.29, 112.18 336.29, 0 336.29 M400.39 336.29 C290.48 336.29, 180.57 336.29, 0 336.29 M0 336.29 C0 250.14, 0 163.99, 0 0 M0 336.29 C0 221.07, 0 105.85, 0 0" stroke="#1e1e1e" stroke-width="2" fill="none"></path></g><g stroke-linecap="round" transform="translate(96.66800349864764 52.88259233750898) rotate(35.15887181943204 16.475926949931818 16.475937281558018)"><path d="M0 0 C7.75 0, 15.51 0, 32.95 0 M0 0 C8.1 0, 16.19 0, 32.95 0 M32.95 0 C32.95 12.72, 32.95 25.44, 32.95 32.95 M32.95 0 C32.95 12.84, 32.95 25.68, 32.95 32.95 M32.95 32.95 C20.62 32.95, 8.28 32.95, 0 32.95 M32.95 32.95 C24.34 32.95, 15.73 32.95, 0 32.95 M0 32.95 C0 20.8, 0 8.65, 0 0 M0 32.95 C0 25.28, 0 17.62, 0 0" stroke="#1e1e1e" stroke-width="2" fill="none"></path></g><g stroke-linecap="round"><g transform="translate(151.28680661504222 11.354207572192138) rotate(0 -14.670371955682072 21.441291002941405)"><path d="M0 0 C-7.24 10.58, -14.48 21.16, -29.34 42.88 M0 0 C-8.45 12.35, -16.89 24.69, -29.34 42.88" stroke="#e03131" stroke-width="2" fill="none"></path></g></g><mask></mask><g stroke-linecap="round"><g transform="translate(99.8277454018372 58.29933997326792) rotate(0 -31.14629890561386 -23.69827090644531)"><path d="M0 0 C-23.7 -18.03, -47.4 -36.06, -62.29 -47.4 M0 0 C-18.12 -13.79, -36.25 -27.58, -62.29 -47.4" stroke="#2f9e44" stroke-width="2" fill="none"></path></g></g><mask></mask><g stroke-linecap="round" transform="translate(160.3148088820674 55.05850291531088) rotate(35.15887181943204 16.475926949931818 16.475937281558018)"><path d="M0 0 C10.32 0, 20.65 0, 32.95 0 M32.95 0 C32.95 8.55, 32.95 17.1, 32.95 32.95 M32.95 32.95 C24.48 32.95, 16 32.95, 0 32.95 M0 32.95 C0 25.79, 0 18.63, 0 0" stroke="#1e1e1e" stroke-width="2.5" fill="none" stroke-dasharray="1.5 8"></path></g><g stroke-linecap="round"><g transform="translate(214.933611998462 13.530118149994053) rotate(0 -14.670371955682072 21.441291002941405)"><path d="M0 0 C-6.75 9.87, -13.5 19.73, -29.34 42.88" stroke="#e03131" stroke-width="2.5" fill="none" stroke-dasharray="1.5 8"></path></g></g><mask></mask><g stroke-linecap="round"><g transform="translate(163.47455078525698 60.475250551069834) rotate(0 -31.14629890561386 -23.69827090644531)"><path d="M0 0 C-15.99 -12.16, -31.98 -24.33, -62.29 -47.4" stroke="#2f9e44" stroke-width="2.5" fill="none" stroke-dasharray="1.5 8"></path></g></g><mask></mask><g stroke-linecap="round" transform="translate(235.24649828556758 54.607093503496046) rotate(35.15887181943204 16.475926949931818 16.475937281558018)"><path d="M0 0 C7 0, 14.01 0, 32.95 0 M32.95 0 C32.95 8.7, 32.95 17.41, 32.95 32.95 M32.95 32.95 C19.97 32.95, 6.99 32.95, 0 32.95 M0 32.95 C0 25.94, 0 18.93, 0 0" stroke="#1e1e1e" stroke-width="2.5" fill="none" stroke-dasharray="1.5 8"></path></g><g stroke-linecap="round"><g transform="translate(289.86530140196214 13.078708738179216) rotate(0 -14.670371955682072 21.441291002941405)"><path d="M0 0 C-10.98 16.05, -21.96 32.09, -29.34 42.88" stroke="#e03131" stroke-width="2.5" fill="none" stroke-dasharray="1.5 8"></path></g></g><mask></mask><g stroke-linecap="round"><g transform="translate(238.40624018875715 60.023841139255) rotate(0 -31.14629890561386 -23.69827090644531)"><path d="M0 0 C-16.37 -12.45, -32.73 -24.91, -62.29 -47.4" stroke="#2f9e44" stroke-width="2.5" fill="none" stroke-dasharray="1.5 8"></path></g></g><mask></mask><g stroke-linecap="round" transform="translate(395.2641381694633 57.001268849654465) rotate(35.15887181943204 16.475926949931818 16.475937281558018)"><path d="M0 0 C8.49 0, 16.98 0, 32.95 0 M32.95 0 C32.95 11.76, 32.95 23.53, 32.95 32.95 M32.95 32.95 C22.08 32.95, 11.21 32.95, 0 32.95 M0 32.95 C0 21.59, 0 10.22, 0 0" stroke="#1e1e1e" stroke-width="2.5" fill="none" stroke-dasharray="1.5 8"></path></g><g stroke-linecap="round"><g transform="translate(449.8829412858579 15.472884084337636) rotate(0 -14.670371955682072 21.441291002941405)"><path d="M0 0 C-9.41 13.75, -18.81 27.49, -29.34 42.88" stroke="#e03131" stroke-width="2.5" fill="none" stroke-dasharray="1.5 8"></path></g></g><mask></mask><g stroke-linecap="round"><g transform="translate(398.4238800726529 62.41801648541342) rotate(0 -31.14629890561386 -23.69827090644531)"><path d="M0 0 C-22.66 -17.24, -45.33 -34.49, -62.29 -47.4" stroke="#2f9e44" stroke-width="2.5" fill="none" stroke-dasharray="1.5 8"></path></g></g><mask></mask></svg>